<svg version="1.1" id="Layer_1" xmlns="http://www.w3.org/2000/svg" xmlns:xlink="http://www.w3.org/1999/xlink" x="0px" y="0px"
	 width="100%" viewBox="0 0 1024 1024" enable-background="new 0 0 1024 1024" xml:space="preserve">
<path fill="#000000" opacity="1.000000" stroke="none" 
	d="
M558.808533,850.788452 
	C546.127075,858.214661 535.552917,867.864380 524.111145,876.324951 
	C518.390808,880.554810 511.688599,884.998169 504.799835,887.100769 
	C490.605255,891.433105 476.563324,899.762817 460.817230,892.046448 
	C453.206940,888.317078 445.194580,885.395996 437.653137,881.543518 
	C433.624390,879.485413 431.090912,875.761047 429.682526,871.126099 
	C424.003967,852.437927 409.513428,841.851196 390.255646,841.031372 
	C386.560791,840.874084 382.814972,840.730591 379.411407,839.494690 
	C364.370880,834.033386 349.182922,829.479736 335.069458,821.087036 
	C306.623901,804.171570 291.023834,777.515564 276.512177,749.674622 
	C270.873322,738.856323 267.947815,727.024292 264.630310,715.300232 
	C260.502289,700.711853 254.619949,686.737305 245.874435,674.101074 
	C240.380630,666.163147 234.931152,658.257690 228.767624,650.777771 
	C221.029739,641.387329 216.362686,630.352478 214.813797,618.152527 
	C213.180908,605.291016 208.501663,593.345947 203.687897,581.458618 
	C199.443634,570.977661 195.393234,560.389221 190.521164,550.200256 
	C186.366486,541.511536 180.345886,533.621216 177.476334,524.396484 
	C170.861160,503.130737 163.736145,481.923645 166.666565,458.946075 
	C167.628845,451.400879 166.922363,443.636200 166.888565,435.972260 
	C166.839355,424.817261 166.365173,413.651764 169.495728,402.724945 
	C170.122681,400.536621 170.176941,398.073425 169.984024,395.779999 
	C169.116791,385.470642 172.772263,376.780975 179.549362,369.367096 
	C190.216675,357.697510 200.137634,345.356110 211.800858,334.572815 
	C218.116928,328.733276 224.908569,325.946106 233.517960,326.885559 
	C239.622467,327.551666 244.875320,325.743286 248.693588,320.246124 
	C251.041504,316.865845 254.345795,314.154327 257.186340,311.110474 
	C259.673706,308.445099 260.786102,305.524902 260.520782,301.624268 
	C259.753723,290.348236 259.698639,279.238037 270.664978,271.682037 
	C274.759003,268.861176 275.874481,264.501434 273.497620,259.699921 
	C272.834290,258.359894 272.386566,256.915009 271.775391,255.547058 
	C265.466187,241.426025 265.397430,241.400208 271.293762,227.437195 
	C272.855591,223.738617 276.489349,222.068695 280.047852,221.486572 
	C286.937347,220.359543 293.044495,217.295181 299.235016,214.505997 
	C303.434082,212.614059 307.712769,211.471786 312.189331,211.113876 
	C317.816711,210.663986 323.485291,209.442856 327.648834,205.969467 
	C340.508118,195.241791 354.895294,195.129745 370.115753,198.254883 
	C377.985748,199.870773 385.674164,199.055634 393.017609,195.570526 
	C396.453766,193.939774 400.101685,193.523270 403.737488,194.704788 
	C414.741669,198.280731 425.723206,197.116180 436.782440,194.988861 
	C439.486969,194.468643 442.083008,193.938889 445.157501,195.862686 
	C447.889313,197.572037 451.145050,195.244659 452.707123,192.005585 
	C453.385681,190.598541 453.261200,188.552109 455.560120,188.512146 
	C457.217438,189.428482 455.126007,191.132996 457.004242,192.550186 
	C461.419952,191.186829 465.946625,189.097946 470.506042,186.793381 
	C474.961517,184.541382 478.742950,181.405762 482.903351,178.963501 
	C483.714569,176.920975 480.996948,176.700577 481.103821,175.438416 
	C481.151703,174.111145 481.876892,173.659653 482.618958,173.280350 
	C483.988403,172.580322 485.529724,171.839615 486.618713,173.519577 
	C488.914307,177.061096 491.971130,176.055878 495.060455,175.168472 
	C495.218903,175.122940 495.358429,175.002914 495.517639,174.969757 
	C505.060730,172.982986 513.340515,169.063065 520.963562,162.515076 
	C526.942932,157.378922 535.162598,156.804443 543.427612,156.047607 
	C555.741943,154.919952 569.151062,157.058670 579.918335,147.343964 
	C586.716248,141.210571 595.573669,139.321777 604.765686,140.961517 
	C615.126404,142.809723 625.656921,141.715973 636.095154,143.476990 
	C647.745361,145.442490 657.993103,150.165039 667.929443,155.981888 
	C672.656067,158.748917 677.275085,161.692307 681.432190,165.381882 
	C686.136963,169.557495 692.434998,170.795197 698.022034,173.341675 
	C701.566223,174.956985 704.585449,177.046341 707.176086,180.050247 
	C714.215088,188.211853 723.667908,193.432571 732.023193,200.001968 
	C748.039246,212.594574 764.804504,224.083984 777.888489,240.396103 
	C786.478516,251.105545 795.930847,262.686340 808.686707,268.337036 
	C823.033508,274.692444 833.942261,284.755341 845.087158,294.838715 
	C858.899536,307.335449 870.628113,321.888916 883.563049,335.230042 
	C894.330994,346.335999 896.740051,360.027893 900.174866,373.902252 
	C903.642761,387.910156 905.474792,402.290100 904.706726,416.333771 
	C903.048218,446.658691 901.525818,477.274323 890.063599,506.050171 
	C886.868896,514.070557 883.528442,522.063232 879.689697,529.851929 
	C876.728943,535.859070 872.577515,540.182190 866.870667,543.315063 
	C865.566162,544.031250 864.021973,544.633667 863.129822,545.729431 
	C850.633301,561.078613 833.623352,570.831665 818.052368,582.382141 
	C812.450500,586.537598 807.177246,591.120422 802.613342,596.489197 
	C788.184143,613.463257 774.181824,630.844971 758.975342,647.096802 
	C749.807861,656.894409 739.811096,665.987122 730.627686,675.835999 
	C713.570862,694.128906 695.395691,711.134766 675.208496,726.022461 
	C664.938782,733.596191 654.276733,740.823364 645.412964,750.137573 
	C634.557434,761.544739 623.227295,772.464111 614.773865,786.066833 
	C609.679077,794.264954 605.129089,802.710083 600.264465,810.995422 
	C591.235474,826.373352 578.708191,838.683716 563.153809,847.710815 
	C561.725830,848.539490 560.426941,849.590637 558.808533,850.788452 
M496.303009,372.802673 
	C470.559906,398.512268 444.816772,424.221863 419.067200,449.937958 
	C416.820526,447.832458 416.262085,445.889771 415.628448,444.014221 
	C412.965851,436.133331 410.318298,428.247162 407.714478,420.346649 
	C399.175476,394.437866 390.700714,368.507812 382.108490,342.616699 
	C379.181061,333.795471 375.553741,331.443237 366.254730,331.289490 
	C335.764923,330.785431 305.261658,332.004700 274.777618,330.455292 
	C266.138611,330.016205 262.696228,334.660156 265.342346,342.707672 
	C288.248749,412.372223 311.127838,482.045898 334.132751,551.677917 
	C348.221466,594.322205 362.495331,636.905334 376.727905,679.501953 
	C384.110443,701.597107 391.592224,723.659058 399.009613,745.742554 
	C400.538391,750.294128 403.148438,753.863770 408.154114,754.578308 
	C414.567627,755.493774 421.097717,755.288391 427.526337,755.822388 
	C439.353149,756.804871 447.959473,752.178650 456.246155,743.985779 
	C516.562195,684.352112 576.250854,624.097778 635.867004,563.767944 
	C676.857666,522.286438 718.690063,481.639954 759.145081,439.625458 
	C765.019348,433.524811 765.229309,428.787750 759.435730,422.801880 
	C746.687073,409.630249 733.844299,396.549408 720.990723,383.479980 
	C716.938904,379.360199 714.105896,379.201782 709.640137,382.524384 
	C688.682678,398.117401 660.373596,391.925507 648.265137,368.670166 
	C640.131470,353.048737 640.388611,337.003906 648.148682,321.172150 
	C650.033447,317.326904 651.107300,313.446747 647.891846,310.012817 
	C636.048401,297.364563 624.330261,284.575195 611.439758,272.968109 
	C607.003296,268.973358 601.624634,269.247101 596.865906,273.043823 
	C595.306396,274.288055 593.874817,275.696808 592.421814,277.069550 
	C559.711914,307.973328 528.765747,340.648254 496.303009,372.802673 
z"/>
<path fill="#000000" opacity="1.000000" stroke="none" 
	d="
M488.778931,580.214111 
	C474.600067,565.868713 460.674072,551.772461 446.752563,537.671753 
	C445.348999,536.250122 443.887787,534.873657 442.597992,533.353455 
	C436.005432,525.583252 436.159973,521.219299 443.289215,514.066345 
	C479.845337,477.388580 516.420166,440.729553 552.965332,404.040863 
	C557.312073,399.676971 561.521545,395.176086 565.786377,390.730774 
	C570.892883,385.408203 577.857056,385.142914 582.940308,390.315857 
	C601.729980,409.436859 620.503479,428.574341 639.180359,447.805389 
	C646.773193,455.623535 646.913208,463.524872 639.158203,471.423096 
	C605.091919,506.118195 570.866211,540.656799 536.687744,575.241699 
	C531.771423,580.216431 526.808594,585.145447 521.847961,590.076111 
	C513.900940,597.975220 506.557220,597.972900 498.524048,590.045471 
	C495.324158,586.887756 492.194611,583.658691 488.778931,580.214111 
z"/>
</svg>