<svg width="502" height="487" viewBox="0 0 502 487" fill="none" xmlns="http://www.w3.org/2000/svg">
<path fill-rule="evenodd" clip-rule="evenodd" d="M343.5 0.500003C345.308 0.491003 346.975 0.991003 348.5 2C361.035 14.702 373.702 27.202 386.5 39.5C387.3 41.607 387.967 43.774 388.5 46C386.904 50.691 384.904 55.191 382.5 59.5C376.989 79.804 381.656 97.304 396.5 112C400.964 115.565 405.964 118.065 411.5 119.5C425.365 123.035 437.698 120.202 448.5 111C451.167 110.333 453.833 110.333 456.5 111C465.396 119.728 474.063 128.562 482.5 137.5C488.829 143.996 494.995 150.663 501 157.5C501.667 160.167 501.667 162.833 501 165.5C497.998 169.334 494.831 173 491.5 176.5C490.5 176.833 489.833 177.5 489.5 178.5C438.833 229.5 388.167 280.5 337.5 331.5C334.5 333.833 331.833 336.5 329.5 339.5C288.167 381.5 246.5 423.167 204.5 464.5C198.035 470.464 191.702 476.631 185.5 483C183.043 484.562 180.376 485.562 177.5 486C165.798 486.801 154.132 486.468 142.5 485C138.35 482.046 135.683 478.213 134.5 473.5C130.035 458.773 125.369 444.106 120.5 429.5C117.342 420.021 114.009 410.688 110.5 401.5C101.969 375.906 93.636 350.24 85.5 324.5C85.011 323.005 84.345 321.671 83.5 320.5C72.372 285.783 61.039 251.116 49.5 216.5C43.974 199.374 38.308 182.374 32.5 165.5C22.643 132.929 11.976 100.596 0.5 68.5C1.246 67.264 1.579 65.93 1.5 64.5C5.431 61.035 10.098 59.701 15.5 60.5C47.492 61.431 79.492 61.764 111.5 61.5C113.475 63.137 115.475 64.804 117.5 66.5C127.622 93.865 136.955 121.532 145.5 149.5C145.328 150.492 145.662 151.158 146.5 151.5C148.895 160.686 151.895 169.686 155.5 178.5C156.002 179.521 156.668 179.688 157.5 179C192.701 143.965 227.701 108.799 262.5 73.5C264.5 72.167 266.167 70.5 267.5 68.5C276.833 58.5 286.5 48.833 296.5 39.5C308.632 27.869 320.632 16.035 332.5 4C335.614 1.146 339.281 -0.0209971 343.5 0.500003Z" fill="#FDFDFD"/>
</svg>
